<?xml version="1.0" encoding="UTF-8" standalone="no"?>
<!-- Created with Inkscape (http://www.inkscape.org/) -->

<svg
   xmlns:dc="http://purl.org/dc/elements/1.1/"
   xmlns:cc="http://creativecommons.org/ns#"
   xmlns:rdf="http://www.w3.org/1999/02/22-rdf-syntax-ns#"
   xmlns:svg="http://www.w3.org/2000/svg"
   xmlns="http://www.w3.org/2000/svg"
   xmlns:sodipodi="http://sodipodi.sourceforge.net/DTD/sodipodi-0.dtd"
   xmlns:inkscape="http://www.inkscape.org/namespaces/inkscape"
   width="174.125"
   height="44.375"
   id="svg2"
   version="1.1"
   inkscape:version="0.48.4 r9939"
   sodipodi:docname="drawing.svg">
  <defs
     id="defs4" />
  <sodipodi:namedview
     id="base"
     pagecolor="#ffffff"
     bordercolor="#666666"
     borderopacity="1.0"
     inkscape:pageopacity="0.0"
     inkscape:pageshadow="2"
     inkscape:zoom="3.0953125"
     inkscape:cx="172.62531"
     inkscape:cy="-18.374154"
     inkscape:document-units="px"
     inkscape:current-layer="layer1"
     showgrid="false"
     fit-margin-top="0"
     fit-margin-left="0"
     fit-margin-right="0"
     fit-margin-bottom="0"
     inkscape:window-width="1366"
     inkscape:window-height="718"
     inkscape:window-x="0"
     inkscape:window-y="0"
     inkscape:window-maximized="1" />
  <metadata
     id="metadata7">
    <rdf:RDF>
      <cc:Work
         rdf:about="">
        <dc:format>image/svg+xml</dc:format>
        <dc:type
           rdf:resource="http://purl.org/dc/dcmitype/StillImage" />
        <dc:title></dc:title>
      </cc:Work>
    </rdf:RDF>
  </metadata>
  <g
     inkscape:label="Layer 1"
     inkscape:groupmode="layer"
     id="layer1"
     transform="translate(-45.1875,-591.28125)">
    <rect
       ry="21.336988"
       rx="13.09587"
       y="591.34259"
       x="45.229671"
       height="44.269276"
       width="174.01999"
       id="rect3784"
       style="fill:#ffffff;fill-opacity:1;stroke:#000000;stroke-width:0;stroke-linecap:butt;stroke-miterlimit:4;stroke-opacity:1;stroke-dasharray:none;stroke-dashoffset:0" />
    <rect
       style="fill:#0000ff;fill-opacity:1;stroke:#000000;stroke-width:0;stroke-linecap:butt;stroke-miterlimit:4;stroke-opacity:1;stroke-dasharray:none;stroke-dashoffset:0"
       id="rect3763"
       width="166.78421"
       height="38.651836"
       x="49.045681"
       y="594.12811"
       rx="12.551342"
       ry="18.629486" />
    <g
       transform="matrix(0.67768141,0,0,0.7965408,-27.252541,357.0667)"
       style="font-size:28px;font-style:normal;font-variant:normal;font-weight:bold;font-stretch:normal;line-height:125%;letter-spacing:0px;word-spacing:0px;fill:#ffff00;fill-opacity:1;stroke:none;font-family:TeX Gyre Bonum;-inkscape-font-specification:TeX Gyre Bonum Bold"
       id="flowRoot2985">
      <path
         d="m 147.78875,315.48712 c 0,-6.6 -4.80001,-8.12 -11.16,-8.12 l -14.36,0 0,3.28 0.8,0.08 c 2.24,0.24 2.72,0.8 2.72,3.36 l 0,13.8 c 0,2.55999 -0.48,3.12 -2.72,3.36 l -0.8,0.08 0,3.28 14.04,0 0,-3.28 -0.8,-0.08 c -2.24,-0.24 -2.72,-0.80001 -2.72,-3.36 l 0,-4.32 3.8,0 c 7.31999,0 11.2,-2.80001 11.2,-8.08 m -7.68,-0.08 c 0,2.91999 -2.16,4.6 -6,4.6 -0.36,0 -0.68,0 -1.32,-0.08 l 0,-5.96 c 0,-1.88 0,-2.92 2.72,-2.92 2.72,0 4.6,1.76 4.6,4.36"
         style="font-size:40px;fill:#ffff00;fill-opacity:1;font-family:TeX Gyre Bonum;-inkscape-font-specification:TeX Gyre Bonum Bold"
         id="path3768"
         inkscape:connector-curvature="0" />
      <path
         d="m 178.635,320.76712 c 0,-8.48 -6.32001,-13.92 -14.56,-13.92 -8.55999,0 -14.8,6.08 -14.8,14.4 0,8.59999 6.52001,13.88 14.28,13.88 8.55999,0 15.08,-6.20001 15.08,-14.36 m -7.68,0.08 c 0,6.07999 -2.84,10.2 -7.08,10.2 -5.51999,0 -6.92,-6.04001 -6.92,-9.96 0,-6.04 2.92,-10.16 7.16,-10.16 4.28,0 6.84,3.68 6.84,9.92"
         style="font-size:40px;fill:#ffff00;fill-opacity:1;font-family:TeX Gyre Bonum;-inkscape-font-specification:TeX Gyre Bonum Bold"
         id="path3770"
         inkscape:connector-curvature="0" />
      <path
         d="m 206.62625,325.08712 -2.76,-1.48 c -2.72,4.83999 -6.24,7.4 -10.2,7.4 -2.44,0 -2.44,-0.48001 -2.44,-3.64 l 0,-13.28 c 0,-2.56 0.48,-3.12 2.72,-3.36 l 0.8,-0.08 0,-3.28 -14.04,0 0,3.28 0.8,0.08 c 2.24,0.24 2.72,0.8 2.72,3.36 l 0,13.8 c 0,2.55999 -0.48,3.12 -2.72,3.36 l -0.8,0.08 0,3.28 21.76,0 4.16,-9.52"
         style="font-size:40px;fill:#ffff00;fill-opacity:1;font-family:TeX Gyre Bonum;-inkscape-font-specification:TeX Gyre Bonum Bold"
         id="path3772"
         inkscape:connector-curvature="0" />
      <path
         d="m 232.06375,310.64712 0,-3.28 -12.24,0 0,3.28 c 2.16,0.04 2.96,0.24 2.96,0.88 0,0.47999 -0.44,1.2 -1.12,2.32 l -3.12,5.16 -3.28,-5.96 c -0.36,-0.64 -0.64,-1.16001 -0.64,-1.52 0,-0.56 0.72,-0.84 3.12,-0.88 l 0,-3.28 -15.2,0 0,3.28 c 2.4,0.24 3.52,1.16 5.4,4.16 l 5.6,8.76 0,4.32 c 0,1.91999 -0.08,3.16 -2.72,3.36 l -1.12,0.08 0,3.28 14.68,0 0,-3.28 -1.12,-0.08 c -2.6,-0.2 -2.72,-1.32001 -2.72,-3.36 l 0,-4.8 5.16,-8 c 2.08,-3.24 3.6,-4.28 6.36,-4.44"
         style="font-size:40px;fill:#ffff00;fill-opacity:1;font-family:TeX Gyre Bonum;-inkscape-font-specification:TeX Gyre Bonum Bold"
         id="path3774"
         inkscape:connector-curvature="0" />
      <path
         d="m 261.21688,323.88712 0,-3.28 -13,0 0,3.28 c 2.35999,0.04 3.51999,0.88 3.51999,2.6 0,2.51999 -2.56,4.76 -5.44,4.76 -4.07999,0 -6.92,-4.00001 -6.92,-9.72 0,-6.48 2.64001,-10.8 6.6,-10.8 2.2,0 4.44001,1.04 6.16,2.8 0.92,0.91999 1.60001,1.92 2.76,4 l 2.88001,-1 -2.44001,-9.16 -2.55999,0 -0.60001,1.16 c -1.63999,-0.96 -4.64,-1.68 -6.96,-1.68 -7.91999,0 -13.52,5.88 -13.52,14.16 0,7.79999 4.76001,14.12 12.84,14.12 4.04,0 6.44001,-1.24001 8.24001,-2.48 l 0.91999,2.32 4.36,0 0,-7.64 c 0,-3.12 0.72001,-3.12001 3.16001,-3.44"
         style="font-size:40px;fill:#ffff00;fill-opacity:1;font-family:TeX Gyre Bonum;-inkscape-font-specification:TeX Gyre Bonum Bold"
         id="path3776"
         inkscape:connector-curvature="0" />
      <path
         d="m 288.18875,325.08712 -2.76,-1.48 c -2.72,4.83999 -6.24,7.4 -10.2,7.4 -2.44,0 -2.44,-0.48001 -2.44,-3.64 l 0,-13.28 c 0,-2.56 0.48,-3.12 2.72,-3.36 l 0.8,-0.08 0,-3.28 -14.04,0 0,3.28 0.8,0.08 c 2.24,0.24 2.72,0.8 2.72,3.36 l 0,13.8 c 0,2.55999 -0.48,3.12 -2.72,3.36 l -0.8,0.08 0,3.28 21.76,0 4.16,-9.52"
         style="font-size:40px;fill:#ffff00;fill-opacity:1;font-family:TeX Gyre Bonum;-inkscape-font-specification:TeX Gyre Bonum Bold"
         id="path3778"
         inkscape:connector-curvature="0" />
      <path
         d="m 318.86937,320.76712 c 0,-8.48 -6.32,-13.92 -14.56,-13.92 -8.55999,0 -14.8,6.08 -14.8,14.4 0,8.59999 6.52001,13.88 14.28,13.88 8.56,0 15.08,-6.20001 15.08,-14.36 m -7.68,0.08 c 0,6.07999 -2.84,10.2 -7.08,10.2 -5.51999,0 -6.92,-6.04001 -6.92,-9.96 0,-6.04 2.92001,-10.16 7.16,-10.16 4.28,0 6.84,3.68 6.84,9.92"
         style="font-size:40px;fill:#ffff00;fill-opacity:1;font-family:TeX Gyre Bonum;-inkscape-font-specification:TeX Gyre Bonum Bold"
         id="path3780"
         inkscape:connector-curvature="0" />
      <path
         d="m 348.65125,315.64712 -3.24,-8.28 -22.04,0 -3,8.28 3,1.16 c 1.4,-3.4 4.2,-5.8 6.88,-5.8 0.6,0 0.68,0.12 0.68,1.52 l 0,15.36 c 0,1.71999 0,3.24 -2.72,3.36 l -1.2,0.08 0,3.28 14.84,0 0,-3.28 -1.2,-0.08 c -2.68,-0.12 -2.72,-1.56001 -2.72,-3.36 l 0,-15.48 c 0,-1.32 0.08,-1.4 0.8,-1.4 3.36,0 5.68,3.6 7,5.8 l 2.92,-1.16"
         style="font-size:40px;fill:#ffff00;fill-opacity:1;font-family:TeX Gyre Bonum;-inkscape-font-specification:TeX Gyre Bonum Bold"
         id="path3782"
         inkscape:connector-curvature="0" />
    </g>
  </g>
</svg>
